<svg xmlns="http://www.w3.org/2000/svg" version="1.1" xmlns:xlink="http://www.w3.org/1999/xlink" width="512" height="512" x="0" y="0" viewBox="0 0 16 16" style="enable-background:new 0 0 512 512" xml:space="preserve" class=""><g><path d="M6.5 15h-4a.5.5 0 0 1-.5-.5v-13a.5.5 0 0 1 .5-.5H8v2.5C8 4.327 8.673 5 9.5 5H12v.5a.5.5 0 0 0 1 0v-.585c0-.4-.156-.777-.439-1.061L9.146.439A1.49 1.49 0 0 0 8.086 0H2.5C1.673 0 1 .673 1 1.5v13c0 .827.673 1.5 1.5 1.5h4a.5.5 0 0 0 0-1zm4.793-11H9.5a.5.5 0 0 1-.5-.5V1.707z" fill="#000000" opacity="1" data-original="#000000"></path><path d="M10.5 7C8.019 7 6 9.019 6 11.5S8.019 16 10.5 16s4.5-2.019 4.5-4.5S12.981 7 10.5 7zm0 8C8.57 15 7 13.43 7 11.5S8.57 8 10.5 8 14 9.57 14 11.5 12.43 15 10.5 15z" fill="#000000" opacity="1" data-original="#000000"></path><path d="M12.268 9.732a.5.5 0 0 0-.707 0L10.5 10.793 9.439 9.732a.5.5 0 0 0-.707.707L9.793 11.5l-1.061 1.061a.5.5 0 0 0 .708.707l1.061-1.061 1.061 1.061a.498.498 0 0 0 .708 0 .5.5 0 0 0 0-.707L11.207 11.5l1.061-1.061a.5.5 0 0 0 0-.707z" fill="#000000" opacity="1" data-original="#000000"></path></g></svg>